<mxfile host="app.diagrams.net" modified="2022-05-06T15:56:55.304Z" agent="5.0 (Windows NT 10.0; Win64; x64) AppleWebKit/537.36 (KHTML, like Gecko) Chrome/101.0.4951.41 Safari/537.36 Edg/101.0.1210.32" etag="LtMyrZtR1oBtqv_ikCJS" version="17.5.1" type="github">
  <diagram id="6a731a19-8d31-9384-78a2-239565b7b9f0" name="Page-1">
    <mxGraphModel dx="834" dy="533" grid="1" gridSize="10" guides="1" tooltips="1" connect="1" arrows="1" fold="1" page="1" pageScale="1" pageWidth="1169" pageHeight="827" background="none" math="0" shadow="0">
      <root>
        <mxCell id="0" />
        <mxCell id="1" parent="0" />
        <mxCell id="j5rV3bfTzjq7nXRstRWs-1779" value="" style="rounded=0;whiteSpace=wrap;html=1;fillColor=#dae8fc;strokeColor=#6c8ebf;" vertex="1" parent="1">
          <mxGeometry x="100" y="120" width="160" height="200" as="geometry" />
        </mxCell>
        <mxCell id="j5rV3bfTzjq7nXRstRWs-1781" value="" style="rounded=0;whiteSpace=wrap;html=1;fillColor=#dae8fc;strokeColor=#6c8ebf;" vertex="1" parent="1">
          <mxGeometry x="400" y="120" width="160" height="200" as="geometry" />
        </mxCell>
        <mxCell id="j5rV3bfTzjq7nXRstRWs-1811" value="" style="group" vertex="1" connectable="0" parent="1">
          <mxGeometry x="120" y="270" width="120" height="20" as="geometry" />
        </mxCell>
        <mxCell id="j5rV3bfTzjq7nXRstRWs-1782" value="" style="rounded=0;whiteSpace=wrap;html=1;" vertex="1" parent="j5rV3bfTzjq7nXRstRWs-1811">
          <mxGeometry width="120" height="20" as="geometry" />
        </mxCell>
        <mxCell id="j5rV3bfTzjq7nXRstRWs-1783" value="" style="rounded=0;whiteSpace=wrap;html=1;fillColor=#ffe6cc;strokeColor=#d79b00;" vertex="1" parent="j5rV3bfTzjq7nXRstRWs-1811">
          <mxGeometry width="10" height="10" as="geometry" />
        </mxCell>
        <mxCell id="j5rV3bfTzjq7nXRstRWs-1786" value="" style="rounded=0;whiteSpace=wrap;html=1;fillColor=#ffe6cc;strokeColor=#d79b00;" vertex="1" parent="j5rV3bfTzjq7nXRstRWs-1811">
          <mxGeometry x="10" width="10" height="10" as="geometry" />
        </mxCell>
        <mxCell id="j5rV3bfTzjq7nXRstRWs-1788" value="" style="rounded=0;whiteSpace=wrap;html=1;" vertex="1" parent="j5rV3bfTzjq7nXRstRWs-1811">
          <mxGeometry x="20" width="10" height="10" as="geometry" />
        </mxCell>
        <mxCell id="j5rV3bfTzjq7nXRstRWs-1789" value="" style="rounded=0;whiteSpace=wrap;html=1;" vertex="1" parent="j5rV3bfTzjq7nXRstRWs-1811">
          <mxGeometry y="10" width="10" height="10" as="geometry" />
        </mxCell>
        <mxCell id="j5rV3bfTzjq7nXRstRWs-1791" value="" style="rounded=0;whiteSpace=wrap;html=1;" vertex="1" parent="j5rV3bfTzjq7nXRstRWs-1811">
          <mxGeometry x="10" y="10" width="10" height="10" as="geometry" />
        </mxCell>
        <mxCell id="j5rV3bfTzjq7nXRstRWs-1792" value="" style="rounded=0;whiteSpace=wrap;html=1;fillColor=#dae8fc;strokeColor=#6c8ebf;" vertex="1" parent="j5rV3bfTzjq7nXRstRWs-1811">
          <mxGeometry x="20" y="10" width="10" height="10" as="geometry" />
        </mxCell>
        <mxCell id="j5rV3bfTzjq7nXRstRWs-1793" value="" style="rounded=0;whiteSpace=wrap;html=1;fillColor=#dae8fc;strokeColor=#6c8ebf;" vertex="1" parent="j5rV3bfTzjq7nXRstRWs-1811">
          <mxGeometry x="30" y="10" width="10" height="10" as="geometry" />
        </mxCell>
        <mxCell id="j5rV3bfTzjq7nXRstRWs-1794" value="" style="rounded=0;whiteSpace=wrap;html=1;fillColor=#dae8fc;strokeColor=#6c8ebf;" vertex="1" parent="j5rV3bfTzjq7nXRstRWs-1811">
          <mxGeometry x="40" y="10" width="10" height="10" as="geometry" />
        </mxCell>
        <mxCell id="j5rV3bfTzjq7nXRstRWs-1795" value="" style="rounded=0;whiteSpace=wrap;html=1;fillColor=#dae8fc;strokeColor=#6c8ebf;" vertex="1" parent="j5rV3bfTzjq7nXRstRWs-1811">
          <mxGeometry x="50" y="10" width="10" height="10" as="geometry" />
        </mxCell>
        <mxCell id="j5rV3bfTzjq7nXRstRWs-1796" value="" style="rounded=0;whiteSpace=wrap;html=1;fillColor=#e1d5e7;strokeColor=#9673a6;" vertex="1" parent="j5rV3bfTzjq7nXRstRWs-1811">
          <mxGeometry x="30" width="10" height="10" as="geometry" />
        </mxCell>
        <mxCell id="j5rV3bfTzjq7nXRstRWs-1797" value="" style="rounded=0;whiteSpace=wrap;html=1;fillColor=#e1d5e7;strokeColor=#9673a6;" vertex="1" parent="j5rV3bfTzjq7nXRstRWs-1811">
          <mxGeometry x="40" width="10" height="10" as="geometry" />
        </mxCell>
        <mxCell id="j5rV3bfTzjq7nXRstRWs-1798" value="" style="rounded=0;whiteSpace=wrap;html=1;fillColor=#e1d5e7;strokeColor=#9673a6;" vertex="1" parent="j5rV3bfTzjq7nXRstRWs-1811">
          <mxGeometry x="50" width="10" height="10" as="geometry" />
        </mxCell>
        <mxCell id="j5rV3bfTzjq7nXRstRWs-1799" value="" style="rounded=0;whiteSpace=wrap;html=1;fillColor=#d5e8d4;strokeColor=#82b366;" vertex="1" parent="j5rV3bfTzjq7nXRstRWs-1811">
          <mxGeometry x="60" y="10" width="10" height="10" as="geometry" />
        </mxCell>
        <mxCell id="j5rV3bfTzjq7nXRstRWs-1800" value="" style="rounded=0;whiteSpace=wrap;html=1;fillColor=#d5e8d4;strokeColor=#82b366;" vertex="1" parent="j5rV3bfTzjq7nXRstRWs-1811">
          <mxGeometry x="70" y="10" width="10" height="10" as="geometry" />
        </mxCell>
        <mxCell id="j5rV3bfTzjq7nXRstRWs-1801" value="" style="rounded=0;whiteSpace=wrap;html=1;" vertex="1" parent="j5rV3bfTzjq7nXRstRWs-1811">
          <mxGeometry x="60" width="10" height="10" as="geometry" />
        </mxCell>
        <mxCell id="j5rV3bfTzjq7nXRstRWs-1802" value="" style="rounded=0;whiteSpace=wrap;html=1;" vertex="1" parent="j5rV3bfTzjq7nXRstRWs-1811">
          <mxGeometry x="70" width="10" height="10" as="geometry" />
        </mxCell>
        <mxCell id="j5rV3bfTzjq7nXRstRWs-1803" value="" style="rounded=0;whiteSpace=wrap;html=1;" vertex="1" parent="j5rV3bfTzjq7nXRstRWs-1811">
          <mxGeometry x="80" width="10" height="10" as="geometry" />
        </mxCell>
        <mxCell id="j5rV3bfTzjq7nXRstRWs-1804" value="" style="rounded=0;whiteSpace=wrap;html=1;" vertex="1" parent="j5rV3bfTzjq7nXRstRWs-1811">
          <mxGeometry x="80" y="10" width="10" height="10" as="geometry" />
        </mxCell>
        <mxCell id="j5rV3bfTzjq7nXRstRWs-1805" value="" style="rounded=0;whiteSpace=wrap;html=1;" vertex="1" parent="j5rV3bfTzjq7nXRstRWs-1811">
          <mxGeometry x="90" width="10" height="10" as="geometry" />
        </mxCell>
        <mxCell id="j5rV3bfTzjq7nXRstRWs-1806" value="" style="rounded=0;whiteSpace=wrap;html=1;" vertex="1" parent="j5rV3bfTzjq7nXRstRWs-1811">
          <mxGeometry x="100" width="10" height="10" as="geometry" />
        </mxCell>
        <mxCell id="j5rV3bfTzjq7nXRstRWs-1807" value="" style="rounded=0;whiteSpace=wrap;html=1;" vertex="1" parent="j5rV3bfTzjq7nXRstRWs-1811">
          <mxGeometry x="110" width="10" height="10" as="geometry" />
        </mxCell>
        <mxCell id="j5rV3bfTzjq7nXRstRWs-1808" value="" style="rounded=0;whiteSpace=wrap;html=1;" vertex="1" parent="j5rV3bfTzjq7nXRstRWs-1811">
          <mxGeometry x="90" y="10" width="10" height="10" as="geometry" />
        </mxCell>
        <mxCell id="j5rV3bfTzjq7nXRstRWs-1809" value="" style="rounded=0;whiteSpace=wrap;html=1;" vertex="1" parent="j5rV3bfTzjq7nXRstRWs-1811">
          <mxGeometry x="100" y="10" width="10" height="10" as="geometry" />
        </mxCell>
        <mxCell id="j5rV3bfTzjq7nXRstRWs-1810" value="" style="rounded=0;whiteSpace=wrap;html=1;" vertex="1" parent="j5rV3bfTzjq7nXRstRWs-1811">
          <mxGeometry x="110" y="10" width="10" height="10" as="geometry" />
        </mxCell>
        <mxCell id="j5rV3bfTzjq7nXRstRWs-1813" value="" style="group" vertex="1" connectable="0" parent="1">
          <mxGeometry x="420" y="270" width="120" height="20" as="geometry" />
        </mxCell>
        <mxCell id="j5rV3bfTzjq7nXRstRWs-1814" value="" style="rounded=0;whiteSpace=wrap;html=1;" vertex="1" parent="j5rV3bfTzjq7nXRstRWs-1813">
          <mxGeometry width="120" height="20" as="geometry" />
        </mxCell>
        <mxCell id="j5rV3bfTzjq7nXRstRWs-1815" value="" style="rounded=0;whiteSpace=wrap;html=1;" vertex="1" parent="j5rV3bfTzjq7nXRstRWs-1813">
          <mxGeometry width="10" height="10" as="geometry" />
        </mxCell>
        <mxCell id="j5rV3bfTzjq7nXRstRWs-1816" value="" style="rounded=0;whiteSpace=wrap;html=1;" vertex="1" parent="j5rV3bfTzjq7nXRstRWs-1813">
          <mxGeometry x="10" width="10" height="10" as="geometry" />
        </mxCell>
        <mxCell id="j5rV3bfTzjq7nXRstRWs-1817" value="" style="rounded=0;whiteSpace=wrap;html=1;" vertex="1" parent="j5rV3bfTzjq7nXRstRWs-1813">
          <mxGeometry x="20" width="10" height="10" as="geometry" />
        </mxCell>
        <mxCell id="j5rV3bfTzjq7nXRstRWs-1818" value="" style="rounded=0;whiteSpace=wrap;html=1;" vertex="1" parent="j5rV3bfTzjq7nXRstRWs-1813">
          <mxGeometry y="10" width="10" height="10" as="geometry" />
        </mxCell>
        <mxCell id="j5rV3bfTzjq7nXRstRWs-1819" value="" style="rounded=0;whiteSpace=wrap;html=1;" vertex="1" parent="j5rV3bfTzjq7nXRstRWs-1813">
          <mxGeometry x="10" y="10" width="10" height="10" as="geometry" />
        </mxCell>
        <mxCell id="j5rV3bfTzjq7nXRstRWs-1820" value="" style="rounded=0;whiteSpace=wrap;html=1;fillColor=#dae8fc;strokeColor=#6c8ebf;" vertex="1" parent="j5rV3bfTzjq7nXRstRWs-1813">
          <mxGeometry x="20" y="10" width="10" height="10" as="geometry" />
        </mxCell>
        <mxCell id="j5rV3bfTzjq7nXRstRWs-1821" value="" style="rounded=0;whiteSpace=wrap;html=1;fillColor=#dae8fc;strokeColor=#6c8ebf;" vertex="1" parent="j5rV3bfTzjq7nXRstRWs-1813">
          <mxGeometry x="30" y="10" width="10" height="10" as="geometry" />
        </mxCell>
        <mxCell id="j5rV3bfTzjq7nXRstRWs-1822" value="" style="rounded=0;whiteSpace=wrap;html=1;fillColor=#dae8fc;strokeColor=#6c8ebf;" vertex="1" parent="j5rV3bfTzjq7nXRstRWs-1813">
          <mxGeometry x="40" y="10" width="10" height="10" as="geometry" />
        </mxCell>
        <mxCell id="j5rV3bfTzjq7nXRstRWs-1823" value="" style="rounded=0;whiteSpace=wrap;html=1;fillColor=#dae8fc;strokeColor=#6c8ebf;" vertex="1" parent="j5rV3bfTzjq7nXRstRWs-1813">
          <mxGeometry x="50" y="10" width="10" height="10" as="geometry" />
        </mxCell>
        <mxCell id="j5rV3bfTzjq7nXRstRWs-1824" value="" style="rounded=0;whiteSpace=wrap;html=1;fillColor=#e1d5e7;strokeColor=#9673a6;" vertex="1" parent="j5rV3bfTzjq7nXRstRWs-1813">
          <mxGeometry x="30" width="10" height="10" as="geometry" />
        </mxCell>
        <mxCell id="j5rV3bfTzjq7nXRstRWs-1825" value="" style="rounded=0;whiteSpace=wrap;html=1;fillColor=#e1d5e7;strokeColor=#9673a6;" vertex="1" parent="j5rV3bfTzjq7nXRstRWs-1813">
          <mxGeometry x="40" width="10" height="10" as="geometry" />
        </mxCell>
        <mxCell id="j5rV3bfTzjq7nXRstRWs-1826" value="" style="rounded=0;whiteSpace=wrap;html=1;fillColor=#e1d5e7;strokeColor=#9673a6;" vertex="1" parent="j5rV3bfTzjq7nXRstRWs-1813">
          <mxGeometry x="50" width="10" height="10" as="geometry" />
        </mxCell>
        <mxCell id="j5rV3bfTzjq7nXRstRWs-1827" value="" style="rounded=0;whiteSpace=wrap;html=1;" vertex="1" parent="j5rV3bfTzjq7nXRstRWs-1813">
          <mxGeometry x="60" y="10" width="10" height="10" as="geometry" />
        </mxCell>
        <mxCell id="j5rV3bfTzjq7nXRstRWs-1828" value="" style="rounded=0;whiteSpace=wrap;html=1;" vertex="1" parent="j5rV3bfTzjq7nXRstRWs-1813">
          <mxGeometry x="70" y="10" width="10" height="10" as="geometry" />
        </mxCell>
        <mxCell id="j5rV3bfTzjq7nXRstRWs-1829" value="" style="rounded=0;whiteSpace=wrap;html=1;" vertex="1" parent="j5rV3bfTzjq7nXRstRWs-1813">
          <mxGeometry x="60" width="10" height="10" as="geometry" />
        </mxCell>
        <mxCell id="j5rV3bfTzjq7nXRstRWs-1830" value="" style="rounded=0;whiteSpace=wrap;html=1;" vertex="1" parent="j5rV3bfTzjq7nXRstRWs-1813">
          <mxGeometry x="70" width="10" height="10" as="geometry" />
        </mxCell>
        <mxCell id="j5rV3bfTzjq7nXRstRWs-1831" value="" style="rounded=0;whiteSpace=wrap;html=1;fillColor=#f8cecc;strokeColor=#b85450;" vertex="1" parent="j5rV3bfTzjq7nXRstRWs-1813">
          <mxGeometry x="80" width="10" height="10" as="geometry" />
        </mxCell>
        <mxCell id="j5rV3bfTzjq7nXRstRWs-1832" value="" style="rounded=0;whiteSpace=wrap;html=1;" vertex="1" parent="j5rV3bfTzjq7nXRstRWs-1813">
          <mxGeometry x="80" y="10" width="10" height="10" as="geometry" />
        </mxCell>
        <mxCell id="j5rV3bfTzjq7nXRstRWs-1833" value="" style="rounded=0;whiteSpace=wrap;html=1;fillColor=#f8cecc;strokeColor=#b85450;" vertex="1" parent="j5rV3bfTzjq7nXRstRWs-1813">
          <mxGeometry x="90" width="10" height="10" as="geometry" />
        </mxCell>
        <mxCell id="j5rV3bfTzjq7nXRstRWs-1834" value="" style="rounded=0;whiteSpace=wrap;html=1;fillColor=#f8cecc;strokeColor=#b85450;" vertex="1" parent="j5rV3bfTzjq7nXRstRWs-1813">
          <mxGeometry x="100" width="10" height="10" as="geometry" />
        </mxCell>
        <mxCell id="j5rV3bfTzjq7nXRstRWs-1835" value="" style="rounded=0;whiteSpace=wrap;html=1;fillColor=#f8cecc;strokeColor=#b85450;" vertex="1" parent="j5rV3bfTzjq7nXRstRWs-1813">
          <mxGeometry x="110" width="10" height="10" as="geometry" />
        </mxCell>
        <mxCell id="j5rV3bfTzjq7nXRstRWs-1836" value="" style="rounded=0;whiteSpace=wrap;html=1;" vertex="1" parent="j5rV3bfTzjq7nXRstRWs-1813">
          <mxGeometry x="90" y="10" width="10" height="10" as="geometry" />
        </mxCell>
        <mxCell id="j5rV3bfTzjq7nXRstRWs-1837" value="" style="rounded=0;whiteSpace=wrap;html=1;" vertex="1" parent="j5rV3bfTzjq7nXRstRWs-1813">
          <mxGeometry x="100" y="10" width="10" height="10" as="geometry" />
        </mxCell>
        <mxCell id="j5rV3bfTzjq7nXRstRWs-1838" value="" style="rounded=0;whiteSpace=wrap;html=1;" vertex="1" parent="j5rV3bfTzjq7nXRstRWs-1813">
          <mxGeometry x="110" y="10" width="10" height="10" as="geometry" />
        </mxCell>
        <mxCell id="j5rV3bfTzjq7nXRstRWs-1840" value="" style="group" vertex="1" connectable="0" parent="1">
          <mxGeometry x="200" y="380" width="120" height="44" as="geometry" />
        </mxCell>
        <mxCell id="j5rV3bfTzjq7nXRstRWs-1841" value="" style="rounded=0;whiteSpace=wrap;html=1;" vertex="1" parent="j5rV3bfTzjq7nXRstRWs-1840">
          <mxGeometry width="120" height="20" as="geometry" />
        </mxCell>
        <mxCell id="j5rV3bfTzjq7nXRstRWs-1842" value="" style="rounded=0;whiteSpace=wrap;html=1;fillColor=#ffe6cc;strokeColor=#d79b00;" vertex="1" parent="j5rV3bfTzjq7nXRstRWs-1840">
          <mxGeometry width="10" height="10" as="geometry" />
        </mxCell>
        <mxCell id="j5rV3bfTzjq7nXRstRWs-1843" value="" style="rounded=0;whiteSpace=wrap;html=1;fillColor=#ffe6cc;strokeColor=#d79b00;" vertex="1" parent="j5rV3bfTzjq7nXRstRWs-1840">
          <mxGeometry x="10" width="10" height="10" as="geometry" />
        </mxCell>
        <mxCell id="j5rV3bfTzjq7nXRstRWs-1844" value="" style="rounded=0;whiteSpace=wrap;html=1;" vertex="1" parent="j5rV3bfTzjq7nXRstRWs-1840">
          <mxGeometry x="20" width="10" height="10" as="geometry" />
        </mxCell>
        <mxCell id="j5rV3bfTzjq7nXRstRWs-1845" value="" style="rounded=0;whiteSpace=wrap;html=1;" vertex="1" parent="j5rV3bfTzjq7nXRstRWs-1840">
          <mxGeometry y="10" width="10" height="10" as="geometry" />
        </mxCell>
        <mxCell id="j5rV3bfTzjq7nXRstRWs-1846" value="" style="rounded=0;whiteSpace=wrap;html=1;" vertex="1" parent="j5rV3bfTzjq7nXRstRWs-1840">
          <mxGeometry x="10" y="10" width="10" height="10" as="geometry" />
        </mxCell>
        <mxCell id="j5rV3bfTzjq7nXRstRWs-1847" value="" style="rounded=0;whiteSpace=wrap;html=1;" vertex="1" parent="j5rV3bfTzjq7nXRstRWs-1840">
          <mxGeometry x="20" y="10" width="10" height="10" as="geometry" />
        </mxCell>
        <mxCell id="j5rV3bfTzjq7nXRstRWs-1848" value="" style="rounded=0;whiteSpace=wrap;html=1;" vertex="1" parent="j5rV3bfTzjq7nXRstRWs-1840">
          <mxGeometry x="30" y="10" width="10" height="10" as="geometry" />
        </mxCell>
        <mxCell id="j5rV3bfTzjq7nXRstRWs-1849" value="" style="rounded=0;whiteSpace=wrap;html=1;" vertex="1" parent="j5rV3bfTzjq7nXRstRWs-1840">
          <mxGeometry x="40" y="10" width="10" height="10" as="geometry" />
        </mxCell>
        <mxCell id="j5rV3bfTzjq7nXRstRWs-1850" value="" style="rounded=0;whiteSpace=wrap;html=1;" vertex="1" parent="j5rV3bfTzjq7nXRstRWs-1840">
          <mxGeometry x="50" y="10" width="10" height="10" as="geometry" />
        </mxCell>
        <mxCell id="j5rV3bfTzjq7nXRstRWs-1851" value="" style="rounded=0;whiteSpace=wrap;html=1;" vertex="1" parent="j5rV3bfTzjq7nXRstRWs-1840">
          <mxGeometry x="30" width="10" height="10" as="geometry" />
        </mxCell>
        <mxCell id="j5rV3bfTzjq7nXRstRWs-1852" value="" style="rounded=0;whiteSpace=wrap;html=1;" vertex="1" parent="j5rV3bfTzjq7nXRstRWs-1840">
          <mxGeometry x="40" width="10" height="10" as="geometry" />
        </mxCell>
        <mxCell id="j5rV3bfTzjq7nXRstRWs-1853" value="" style="rounded=0;whiteSpace=wrap;html=1;" vertex="1" parent="j5rV3bfTzjq7nXRstRWs-1840">
          <mxGeometry x="50" width="10" height="10" as="geometry" />
        </mxCell>
        <mxCell id="j5rV3bfTzjq7nXRstRWs-1854" value="" style="rounded=0;whiteSpace=wrap;html=1;" vertex="1" parent="j5rV3bfTzjq7nXRstRWs-1840">
          <mxGeometry x="60" y="10" width="10" height="10" as="geometry" />
        </mxCell>
        <mxCell id="j5rV3bfTzjq7nXRstRWs-1855" value="" style="rounded=0;whiteSpace=wrap;html=1;" vertex="1" parent="j5rV3bfTzjq7nXRstRWs-1840">
          <mxGeometry x="70" y="10" width="10" height="10" as="geometry" />
        </mxCell>
        <mxCell id="j5rV3bfTzjq7nXRstRWs-1856" value="" style="rounded=0;whiteSpace=wrap;html=1;" vertex="1" parent="j5rV3bfTzjq7nXRstRWs-1840">
          <mxGeometry x="60" width="10" height="10" as="geometry" />
        </mxCell>
        <mxCell id="j5rV3bfTzjq7nXRstRWs-1857" value="" style="rounded=0;whiteSpace=wrap;html=1;" vertex="1" parent="j5rV3bfTzjq7nXRstRWs-1840">
          <mxGeometry x="70" width="10" height="10" as="geometry" />
        </mxCell>
        <mxCell id="j5rV3bfTzjq7nXRstRWs-1858" value="" style="rounded=0;whiteSpace=wrap;html=1;" vertex="1" parent="j5rV3bfTzjq7nXRstRWs-1840">
          <mxGeometry x="80" width="10" height="10" as="geometry" />
        </mxCell>
        <mxCell id="j5rV3bfTzjq7nXRstRWs-1859" value="" style="rounded=0;whiteSpace=wrap;html=1;" vertex="1" parent="j5rV3bfTzjq7nXRstRWs-1840">
          <mxGeometry x="80" y="10" width="10" height="10" as="geometry" />
        </mxCell>
        <mxCell id="j5rV3bfTzjq7nXRstRWs-1860" value="" style="rounded=0;whiteSpace=wrap;html=1;" vertex="1" parent="j5rV3bfTzjq7nXRstRWs-1840">
          <mxGeometry x="90" width="10" height="10" as="geometry" />
        </mxCell>
        <mxCell id="j5rV3bfTzjq7nXRstRWs-1861" value="" style="rounded=0;whiteSpace=wrap;html=1;" vertex="1" parent="j5rV3bfTzjq7nXRstRWs-1840">
          <mxGeometry x="100" width="10" height="10" as="geometry" />
        </mxCell>
        <mxCell id="j5rV3bfTzjq7nXRstRWs-1862" value="" style="rounded=0;whiteSpace=wrap;html=1;" vertex="1" parent="j5rV3bfTzjq7nXRstRWs-1840">
          <mxGeometry x="110" width="10" height="10" as="geometry" />
        </mxCell>
        <mxCell id="j5rV3bfTzjq7nXRstRWs-1863" value="" style="rounded=0;whiteSpace=wrap;html=1;" vertex="1" parent="j5rV3bfTzjq7nXRstRWs-1840">
          <mxGeometry x="90" y="10" width="10" height="10" as="geometry" />
        </mxCell>
        <mxCell id="j5rV3bfTzjq7nXRstRWs-1864" value="" style="rounded=0;whiteSpace=wrap;html=1;" vertex="1" parent="j5rV3bfTzjq7nXRstRWs-1840">
          <mxGeometry x="100" y="10" width="10" height="10" as="geometry" />
        </mxCell>
        <mxCell id="j5rV3bfTzjq7nXRstRWs-1865" value="" style="rounded=0;whiteSpace=wrap;html=1;" vertex="1" parent="j5rV3bfTzjq7nXRstRWs-1840">
          <mxGeometry x="110" y="10" width="10" height="10" as="geometry" />
        </mxCell>
        <mxCell id="j5rV3bfTzjq7nXRstRWs-1944" value="" style="group" vertex="1" connectable="0" parent="j5rV3bfTzjq7nXRstRWs-1840">
          <mxGeometry y="20" width="120" height="20" as="geometry" />
        </mxCell>
        <mxCell id="j5rV3bfTzjq7nXRstRWs-1945" value="" style="rounded=0;whiteSpace=wrap;html=1;" vertex="1" parent="j5rV3bfTzjq7nXRstRWs-1944">
          <mxGeometry width="120" height="20" as="geometry" />
        </mxCell>
        <mxCell id="j5rV3bfTzjq7nXRstRWs-1946" value="" style="rounded=0;whiteSpace=wrap;html=1;" vertex="1" parent="j5rV3bfTzjq7nXRstRWs-1944">
          <mxGeometry width="10" height="10" as="geometry" />
        </mxCell>
        <mxCell id="j5rV3bfTzjq7nXRstRWs-1947" value="" style="rounded=0;whiteSpace=wrap;html=1;" vertex="1" parent="j5rV3bfTzjq7nXRstRWs-1944">
          <mxGeometry x="10" width="10" height="10" as="geometry" />
        </mxCell>
        <mxCell id="j5rV3bfTzjq7nXRstRWs-1948" value="" style="rounded=0;whiteSpace=wrap;html=1;" vertex="1" parent="j5rV3bfTzjq7nXRstRWs-1944">
          <mxGeometry x="20" width="10" height="10" as="geometry" />
        </mxCell>
        <mxCell id="j5rV3bfTzjq7nXRstRWs-1949" value="" style="rounded=0;whiteSpace=wrap;html=1;" vertex="1" parent="j5rV3bfTzjq7nXRstRWs-1944">
          <mxGeometry y="10" width="10" height="10" as="geometry" />
        </mxCell>
        <mxCell id="j5rV3bfTzjq7nXRstRWs-1950" value="" style="rounded=0;whiteSpace=wrap;html=1;" vertex="1" parent="j5rV3bfTzjq7nXRstRWs-1944">
          <mxGeometry x="10" y="10" width="10" height="10" as="geometry" />
        </mxCell>
        <mxCell id="j5rV3bfTzjq7nXRstRWs-1951" value="" style="rounded=0;whiteSpace=wrap;html=1;fillColor=#dae8fc;strokeColor=#6c8ebf;" vertex="1" parent="j5rV3bfTzjq7nXRstRWs-1944">
          <mxGeometry x="20" y="10" width="10" height="10" as="geometry" />
        </mxCell>
        <mxCell id="j5rV3bfTzjq7nXRstRWs-1952" value="" style="rounded=0;whiteSpace=wrap;html=1;fillColor=#dae8fc;strokeColor=#6c8ebf;" vertex="1" parent="j5rV3bfTzjq7nXRstRWs-1944">
          <mxGeometry x="30" y="10" width="10" height="10" as="geometry" />
        </mxCell>
        <mxCell id="j5rV3bfTzjq7nXRstRWs-1953" value="" style="rounded=0;whiteSpace=wrap;html=1;fillColor=#dae8fc;strokeColor=#6c8ebf;" vertex="1" parent="j5rV3bfTzjq7nXRstRWs-1944">
          <mxGeometry x="40" y="10" width="10" height="10" as="geometry" />
        </mxCell>
        <mxCell id="j5rV3bfTzjq7nXRstRWs-1954" value="" style="rounded=0;whiteSpace=wrap;html=1;fillColor=#dae8fc;strokeColor=#6c8ebf;" vertex="1" parent="j5rV3bfTzjq7nXRstRWs-1944">
          <mxGeometry x="50" y="10" width="10" height="10" as="geometry" />
        </mxCell>
        <mxCell id="j5rV3bfTzjq7nXRstRWs-1955" value="" style="rounded=0;whiteSpace=wrap;html=1;" vertex="1" parent="j5rV3bfTzjq7nXRstRWs-1944">
          <mxGeometry x="30" width="10" height="10" as="geometry" />
        </mxCell>
        <mxCell id="j5rV3bfTzjq7nXRstRWs-1956" value="" style="rounded=0;whiteSpace=wrap;html=1;" vertex="1" parent="j5rV3bfTzjq7nXRstRWs-1944">
          <mxGeometry x="40" width="10" height="10" as="geometry" />
        </mxCell>
        <mxCell id="j5rV3bfTzjq7nXRstRWs-1957" value="" style="rounded=0;whiteSpace=wrap;html=1;" vertex="1" parent="j5rV3bfTzjq7nXRstRWs-1944">
          <mxGeometry x="50" width="10" height="10" as="geometry" />
        </mxCell>
        <mxCell id="j5rV3bfTzjq7nXRstRWs-1958" value="" style="rounded=0;whiteSpace=wrap;html=1;fillColor=#d5e8d4;strokeColor=#82b366;" vertex="1" parent="j5rV3bfTzjq7nXRstRWs-1944">
          <mxGeometry x="60" y="10" width="10" height="10" as="geometry" />
        </mxCell>
        <mxCell id="j5rV3bfTzjq7nXRstRWs-1959" value="" style="rounded=0;whiteSpace=wrap;html=1;fillColor=#d5e8d4;strokeColor=#82b366;" vertex="1" parent="j5rV3bfTzjq7nXRstRWs-1944">
          <mxGeometry x="70" y="10" width="10" height="10" as="geometry" />
        </mxCell>
        <mxCell id="j5rV3bfTzjq7nXRstRWs-1960" value="" style="rounded=0;whiteSpace=wrap;html=1;" vertex="1" parent="j5rV3bfTzjq7nXRstRWs-1944">
          <mxGeometry x="60" width="10" height="10" as="geometry" />
        </mxCell>
        <mxCell id="j5rV3bfTzjq7nXRstRWs-1961" value="" style="rounded=0;whiteSpace=wrap;html=1;" vertex="1" parent="j5rV3bfTzjq7nXRstRWs-1944">
          <mxGeometry x="70" width="10" height="10" as="geometry" />
        </mxCell>
        <mxCell id="j5rV3bfTzjq7nXRstRWs-1962" value="" style="rounded=0;whiteSpace=wrap;html=1;" vertex="1" parent="j5rV3bfTzjq7nXRstRWs-1944">
          <mxGeometry x="80" width="10" height="10" as="geometry" />
        </mxCell>
        <mxCell id="j5rV3bfTzjq7nXRstRWs-1963" value="" style="rounded=0;whiteSpace=wrap;html=1;" vertex="1" parent="j5rV3bfTzjq7nXRstRWs-1944">
          <mxGeometry x="80" y="10" width="10" height="10" as="geometry" />
        </mxCell>
        <mxCell id="j5rV3bfTzjq7nXRstRWs-1964" value="" style="rounded=0;whiteSpace=wrap;html=1;" vertex="1" parent="j5rV3bfTzjq7nXRstRWs-1944">
          <mxGeometry x="90" width="10" height="10" as="geometry" />
        </mxCell>
        <mxCell id="j5rV3bfTzjq7nXRstRWs-1965" value="" style="rounded=0;whiteSpace=wrap;html=1;" vertex="1" parent="j5rV3bfTzjq7nXRstRWs-1944">
          <mxGeometry x="100" width="10" height="10" as="geometry" />
        </mxCell>
        <mxCell id="j5rV3bfTzjq7nXRstRWs-1966" value="" style="rounded=0;whiteSpace=wrap;html=1;" vertex="1" parent="j5rV3bfTzjq7nXRstRWs-1944">
          <mxGeometry x="110" width="10" height="10" as="geometry" />
        </mxCell>
        <mxCell id="j5rV3bfTzjq7nXRstRWs-1967" value="" style="rounded=0;whiteSpace=wrap;html=1;" vertex="1" parent="j5rV3bfTzjq7nXRstRWs-1944">
          <mxGeometry x="90" y="10" width="10" height="10" as="geometry" />
        </mxCell>
        <mxCell id="j5rV3bfTzjq7nXRstRWs-1968" value="" style="rounded=0;whiteSpace=wrap;html=1;" vertex="1" parent="j5rV3bfTzjq7nXRstRWs-1944">
          <mxGeometry x="100" y="10" width="10" height="10" as="geometry" />
        </mxCell>
        <mxCell id="j5rV3bfTzjq7nXRstRWs-1969" value="" style="rounded=0;whiteSpace=wrap;html=1;" vertex="1" parent="j5rV3bfTzjq7nXRstRWs-1944">
          <mxGeometry x="110" y="10" width="10" height="10" as="geometry" />
        </mxCell>
        <mxCell id="j5rV3bfTzjq7nXRstRWs-1866" value="" style="group" vertex="1" connectable="0" parent="1">
          <mxGeometry x="310" y="380" width="130" height="40" as="geometry" />
        </mxCell>
        <mxCell id="j5rV3bfTzjq7nXRstRWs-1867" value="" style="rounded=0;whiteSpace=wrap;html=1;" vertex="1" parent="j5rV3bfTzjq7nXRstRWs-1866">
          <mxGeometry width="120" height="20" as="geometry" />
        </mxCell>
        <mxCell id="j5rV3bfTzjq7nXRstRWs-1868" value="" style="rounded=0;whiteSpace=wrap;html=1;" vertex="1" parent="j5rV3bfTzjq7nXRstRWs-1866">
          <mxGeometry width="10" height="10" as="geometry" />
        </mxCell>
        <mxCell id="j5rV3bfTzjq7nXRstRWs-1869" value="" style="rounded=0;whiteSpace=wrap;html=1;" vertex="1" parent="j5rV3bfTzjq7nXRstRWs-1866">
          <mxGeometry x="10" width="10" height="10" as="geometry" />
        </mxCell>
        <mxCell id="j5rV3bfTzjq7nXRstRWs-1870" value="" style="rounded=0;whiteSpace=wrap;html=1;" vertex="1" parent="j5rV3bfTzjq7nXRstRWs-1866">
          <mxGeometry x="20" width="10" height="10" as="geometry" />
        </mxCell>
        <mxCell id="j5rV3bfTzjq7nXRstRWs-1871" value="" style="rounded=0;whiteSpace=wrap;html=1;" vertex="1" parent="j5rV3bfTzjq7nXRstRWs-1866">
          <mxGeometry y="10" width="10" height="10" as="geometry" />
        </mxCell>
        <mxCell id="j5rV3bfTzjq7nXRstRWs-1872" value="" style="rounded=0;whiteSpace=wrap;html=1;" vertex="1" parent="j5rV3bfTzjq7nXRstRWs-1866">
          <mxGeometry x="10" y="10" width="10" height="10" as="geometry" />
        </mxCell>
        <mxCell id="j5rV3bfTzjq7nXRstRWs-1873" value="" style="rounded=0;whiteSpace=wrap;html=1;" vertex="1" parent="j5rV3bfTzjq7nXRstRWs-1866">
          <mxGeometry x="20" y="10" width="10" height="10" as="geometry" />
        </mxCell>
        <mxCell id="j5rV3bfTzjq7nXRstRWs-1874" value="" style="rounded=0;whiteSpace=wrap;html=1;" vertex="1" parent="j5rV3bfTzjq7nXRstRWs-1866">
          <mxGeometry x="30" y="10" width="10" height="10" as="geometry" />
        </mxCell>
        <mxCell id="j5rV3bfTzjq7nXRstRWs-1875" value="" style="rounded=0;whiteSpace=wrap;html=1;" vertex="1" parent="j5rV3bfTzjq7nXRstRWs-1866">
          <mxGeometry x="40" y="10" width="10" height="10" as="geometry" />
        </mxCell>
        <mxCell id="j5rV3bfTzjq7nXRstRWs-1876" value="" style="rounded=0;whiteSpace=wrap;html=1;" vertex="1" parent="j5rV3bfTzjq7nXRstRWs-1866">
          <mxGeometry x="50" y="10" width="10" height="10" as="geometry" />
        </mxCell>
        <mxCell id="j5rV3bfTzjq7nXRstRWs-1877" value="" style="rounded=0;whiteSpace=wrap;html=1;" vertex="1" parent="j5rV3bfTzjq7nXRstRWs-1866">
          <mxGeometry x="30" width="10" height="10" as="geometry" />
        </mxCell>
        <mxCell id="j5rV3bfTzjq7nXRstRWs-1878" value="" style="rounded=0;whiteSpace=wrap;html=1;" vertex="1" parent="j5rV3bfTzjq7nXRstRWs-1866">
          <mxGeometry x="40" width="10" height="10" as="geometry" />
        </mxCell>
        <mxCell id="j5rV3bfTzjq7nXRstRWs-1879" value="" style="rounded=0;whiteSpace=wrap;html=1;" vertex="1" parent="j5rV3bfTzjq7nXRstRWs-1866">
          <mxGeometry x="50" width="10" height="10" as="geometry" />
        </mxCell>
        <mxCell id="j5rV3bfTzjq7nXRstRWs-1880" value="" style="rounded=0;whiteSpace=wrap;html=1;" vertex="1" parent="j5rV3bfTzjq7nXRstRWs-1866">
          <mxGeometry x="60" y="10" width="10" height="10" as="geometry" />
        </mxCell>
        <mxCell id="j5rV3bfTzjq7nXRstRWs-1881" value="" style="rounded=0;whiteSpace=wrap;html=1;" vertex="1" parent="j5rV3bfTzjq7nXRstRWs-1866">
          <mxGeometry x="70" y="10" width="10" height="10" as="geometry" />
        </mxCell>
        <mxCell id="j5rV3bfTzjq7nXRstRWs-1882" value="" style="rounded=0;whiteSpace=wrap;html=1;" vertex="1" parent="j5rV3bfTzjq7nXRstRWs-1866">
          <mxGeometry x="60" width="10" height="10" as="geometry" />
        </mxCell>
        <mxCell id="j5rV3bfTzjq7nXRstRWs-1883" value="" style="rounded=0;whiteSpace=wrap;html=1;" vertex="1" parent="j5rV3bfTzjq7nXRstRWs-1866">
          <mxGeometry x="70" width="10" height="10" as="geometry" />
        </mxCell>
        <mxCell id="j5rV3bfTzjq7nXRstRWs-1884" value="" style="rounded=0;whiteSpace=wrap;html=1;" vertex="1" parent="j5rV3bfTzjq7nXRstRWs-1866">
          <mxGeometry x="80" width="10" height="10" as="geometry" />
        </mxCell>
        <mxCell id="j5rV3bfTzjq7nXRstRWs-1885" value="" style="rounded=0;whiteSpace=wrap;html=1;" vertex="1" parent="j5rV3bfTzjq7nXRstRWs-1866">
          <mxGeometry x="80" y="10" width="10" height="10" as="geometry" />
        </mxCell>
        <mxCell id="j5rV3bfTzjq7nXRstRWs-1886" value="" style="rounded=0;whiteSpace=wrap;html=1;fillColor=#f8cecc;strokeColor=#b85450;" vertex="1" parent="j5rV3bfTzjq7nXRstRWs-1866">
          <mxGeometry x="90" width="10" height="10" as="geometry" />
        </mxCell>
        <mxCell id="j5rV3bfTzjq7nXRstRWs-1887" value="" style="rounded=0;whiteSpace=wrap;html=1;fillColor=#f8cecc;strokeColor=#b85450;" vertex="1" parent="j5rV3bfTzjq7nXRstRWs-1866">
          <mxGeometry x="100" width="10" height="10" as="geometry" />
        </mxCell>
        <mxCell id="j5rV3bfTzjq7nXRstRWs-1888" value="" style="rounded=0;whiteSpace=wrap;html=1;fillColor=#f8cecc;strokeColor=#b85450;" vertex="1" parent="j5rV3bfTzjq7nXRstRWs-1866">
          <mxGeometry x="110" width="10" height="10" as="geometry" />
        </mxCell>
        <mxCell id="j5rV3bfTzjq7nXRstRWs-1889" value="" style="rounded=0;whiteSpace=wrap;html=1;" vertex="1" parent="j5rV3bfTzjq7nXRstRWs-1866">
          <mxGeometry x="90" y="10" width="10" height="10" as="geometry" />
        </mxCell>
        <mxCell id="j5rV3bfTzjq7nXRstRWs-1890" value="" style="rounded=0;whiteSpace=wrap;html=1;" vertex="1" parent="j5rV3bfTzjq7nXRstRWs-1866">
          <mxGeometry x="100" y="10" width="10" height="10" as="geometry" />
        </mxCell>
        <mxCell id="j5rV3bfTzjq7nXRstRWs-1891" value="" style="rounded=0;whiteSpace=wrap;html=1;" vertex="1" parent="j5rV3bfTzjq7nXRstRWs-1866">
          <mxGeometry x="110" y="10" width="10" height="10" as="geometry" />
        </mxCell>
        <mxCell id="j5rV3bfTzjq7nXRstRWs-1996" value="" style="group" vertex="1" connectable="0" parent="j5rV3bfTzjq7nXRstRWs-1866">
          <mxGeometry x="10" y="20" width="120" height="20" as="geometry" />
        </mxCell>
        <mxCell id="j5rV3bfTzjq7nXRstRWs-1997" value="" style="rounded=0;whiteSpace=wrap;html=1;" vertex="1" parent="j5rV3bfTzjq7nXRstRWs-1996">
          <mxGeometry width="120" height="20" as="geometry" />
        </mxCell>
        <mxCell id="j5rV3bfTzjq7nXRstRWs-1998" value="" style="rounded=0;whiteSpace=wrap;html=1;" vertex="1" parent="j5rV3bfTzjq7nXRstRWs-1996">
          <mxGeometry width="10" height="10" as="geometry" />
        </mxCell>
        <mxCell id="j5rV3bfTzjq7nXRstRWs-1999" value="" style="rounded=0;whiteSpace=wrap;html=1;" vertex="1" parent="j5rV3bfTzjq7nXRstRWs-1996">
          <mxGeometry x="10" width="10" height="10" as="geometry" />
        </mxCell>
        <mxCell id="j5rV3bfTzjq7nXRstRWs-2000" value="" style="rounded=0;whiteSpace=wrap;html=1;" vertex="1" parent="j5rV3bfTzjq7nXRstRWs-1996">
          <mxGeometry x="20" width="10" height="10" as="geometry" />
        </mxCell>
        <mxCell id="j5rV3bfTzjq7nXRstRWs-2001" value="" style="rounded=0;whiteSpace=wrap;html=1;" vertex="1" parent="j5rV3bfTzjq7nXRstRWs-1996">
          <mxGeometry y="10" width="10" height="10" as="geometry" />
        </mxCell>
        <mxCell id="j5rV3bfTzjq7nXRstRWs-2002" value="" style="rounded=0;whiteSpace=wrap;html=1;" vertex="1" parent="j5rV3bfTzjq7nXRstRWs-1996">
          <mxGeometry x="10" y="10" width="10" height="10" as="geometry" />
        </mxCell>
        <mxCell id="j5rV3bfTzjq7nXRstRWs-2003" value="" style="rounded=0;whiteSpace=wrap;html=1;" vertex="1" parent="j5rV3bfTzjq7nXRstRWs-1996">
          <mxGeometry x="20" y="10" width="10" height="10" as="geometry" />
        </mxCell>
        <mxCell id="j5rV3bfTzjq7nXRstRWs-2004" value="" style="rounded=0;whiteSpace=wrap;html=1;" vertex="1" parent="j5rV3bfTzjq7nXRstRWs-1996">
          <mxGeometry x="30" y="10" width="10" height="10" as="geometry" />
        </mxCell>
        <mxCell id="j5rV3bfTzjq7nXRstRWs-2005" value="" style="rounded=0;whiteSpace=wrap;html=1;" vertex="1" parent="j5rV3bfTzjq7nXRstRWs-1996">
          <mxGeometry x="40" y="10" width="10" height="10" as="geometry" />
        </mxCell>
        <mxCell id="j5rV3bfTzjq7nXRstRWs-2006" value="" style="rounded=0;whiteSpace=wrap;html=1;" vertex="1" parent="j5rV3bfTzjq7nXRstRWs-1996">
          <mxGeometry x="50" y="10" width="10" height="10" as="geometry" />
        </mxCell>
        <mxCell id="j5rV3bfTzjq7nXRstRWs-2007" value="" style="rounded=0;whiteSpace=wrap;html=1;fillColor=#e1d5e7;strokeColor=#9673a6;" vertex="1" parent="j5rV3bfTzjq7nXRstRWs-1996">
          <mxGeometry x="30" width="10" height="10" as="geometry" />
        </mxCell>
        <mxCell id="j5rV3bfTzjq7nXRstRWs-2008" value="" style="rounded=0;whiteSpace=wrap;html=1;fillColor=#e1d5e7;strokeColor=#9673a6;" vertex="1" parent="j5rV3bfTzjq7nXRstRWs-1996">
          <mxGeometry x="40" width="10" height="10" as="geometry" />
        </mxCell>
        <mxCell id="j5rV3bfTzjq7nXRstRWs-2009" value="" style="rounded=0;whiteSpace=wrap;html=1;fillColor=#e1d5e7;strokeColor=#9673a6;" vertex="1" parent="j5rV3bfTzjq7nXRstRWs-1996">
          <mxGeometry x="50" width="10" height="10" as="geometry" />
        </mxCell>
        <mxCell id="j5rV3bfTzjq7nXRstRWs-2010" value="" style="rounded=0;whiteSpace=wrap;html=1;" vertex="1" parent="j5rV3bfTzjq7nXRstRWs-1996">
          <mxGeometry x="60" y="10" width="10" height="10" as="geometry" />
        </mxCell>
        <mxCell id="j5rV3bfTzjq7nXRstRWs-2011" value="" style="rounded=0;whiteSpace=wrap;html=1;" vertex="1" parent="j5rV3bfTzjq7nXRstRWs-1996">
          <mxGeometry x="70" y="10" width="10" height="10" as="geometry" />
        </mxCell>
        <mxCell id="j5rV3bfTzjq7nXRstRWs-2012" value="" style="rounded=0;whiteSpace=wrap;html=1;" vertex="1" parent="j5rV3bfTzjq7nXRstRWs-1996">
          <mxGeometry x="60" width="10" height="10" as="geometry" />
        </mxCell>
        <mxCell id="j5rV3bfTzjq7nXRstRWs-2013" value="" style="rounded=0;whiteSpace=wrap;html=1;" vertex="1" parent="j5rV3bfTzjq7nXRstRWs-1996">
          <mxGeometry x="70" width="10" height="10" as="geometry" />
        </mxCell>
        <mxCell id="j5rV3bfTzjq7nXRstRWs-2014" value="" style="rounded=0;whiteSpace=wrap;html=1;" vertex="1" parent="j5rV3bfTzjq7nXRstRWs-1996">
          <mxGeometry x="80" width="10" height="10" as="geometry" />
        </mxCell>
        <mxCell id="j5rV3bfTzjq7nXRstRWs-2015" value="" style="rounded=0;whiteSpace=wrap;html=1;" vertex="1" parent="j5rV3bfTzjq7nXRstRWs-1996">
          <mxGeometry x="80" y="10" width="10" height="10" as="geometry" />
        </mxCell>
        <mxCell id="j5rV3bfTzjq7nXRstRWs-2016" value="" style="rounded=0;whiteSpace=wrap;html=1;" vertex="1" parent="j5rV3bfTzjq7nXRstRWs-1996">
          <mxGeometry x="90" width="10" height="10" as="geometry" />
        </mxCell>
        <mxCell id="j5rV3bfTzjq7nXRstRWs-2017" value="" style="rounded=0;whiteSpace=wrap;html=1;" vertex="1" parent="j5rV3bfTzjq7nXRstRWs-1996">
          <mxGeometry x="100" width="10" height="10" as="geometry" />
        </mxCell>
        <mxCell id="j5rV3bfTzjq7nXRstRWs-2018" value="" style="rounded=0;whiteSpace=wrap;html=1;" vertex="1" parent="j5rV3bfTzjq7nXRstRWs-1996">
          <mxGeometry x="110" width="10" height="10" as="geometry" />
        </mxCell>
        <mxCell id="j5rV3bfTzjq7nXRstRWs-2019" value="" style="rounded=0;whiteSpace=wrap;html=1;" vertex="1" parent="j5rV3bfTzjq7nXRstRWs-1996">
          <mxGeometry x="90" y="10" width="10" height="10" as="geometry" />
        </mxCell>
        <mxCell id="j5rV3bfTzjq7nXRstRWs-2020" value="" style="rounded=0;whiteSpace=wrap;html=1;" vertex="1" parent="j5rV3bfTzjq7nXRstRWs-1996">
          <mxGeometry x="100" y="10" width="10" height="10" as="geometry" />
        </mxCell>
        <mxCell id="j5rV3bfTzjq7nXRstRWs-2021" value="" style="rounded=0;whiteSpace=wrap;html=1;" vertex="1" parent="j5rV3bfTzjq7nXRstRWs-1996">
          <mxGeometry x="110" y="10" width="10" height="10" as="geometry" />
        </mxCell>
        <mxCell id="j5rV3bfTzjq7nXRstRWs-2022" value="" style="rounded=0;whiteSpace=wrap;html=1;" vertex="1" parent="j5rV3bfTzjq7nXRstRWs-1866">
          <mxGeometry x="120" y="10" width="10" height="10" as="geometry" />
        </mxCell>
        <mxCell id="j5rV3bfTzjq7nXRstRWs-2023" value="" style="rounded=0;whiteSpace=wrap;html=1;fillColor=#f8cecc;strokeColor=#b85450;" vertex="1" parent="j5rV3bfTzjq7nXRstRWs-1866">
          <mxGeometry x="120" width="10" height="10" as="geometry" />
        </mxCell>
        <mxCell id="j5rV3bfTzjq7nXRstRWs-2025" value="guest filesystem with dax" style="rounded=0;whiteSpace=wrap;html=1;fillColor=#ffe6cc;strokeColor=#d79b00;" vertex="1" parent="1">
          <mxGeometry x="120" y="220" width="120" height="30" as="geometry" />
        </mxCell>
        <mxCell id="j5rV3bfTzjq7nXRstRWs-2026" value="guest filesystem with dax" style="rounded=0;whiteSpace=wrap;html=1;fillColor=#ffe6cc;strokeColor=#d79b00;" vertex="1" parent="1">
          <mxGeometry x="420" y="220" width="120" height="30" as="geometry" />
        </mxCell>
        <mxCell id="j5rV3bfTzjq7nXRstRWs-2027" value="Guest OS 1" style="text;html=1;strokeColor=none;fillColor=none;align=center;verticalAlign=middle;whiteSpace=wrap;rounded=0;" vertex="1" parent="1">
          <mxGeometry x="70" y="120" width="130" height="30" as="geometry" />
        </mxCell>
        <mxCell id="j5rV3bfTzjq7nXRstRWs-2028" value="Guest OS 2" style="text;html=1;strokeColor=none;fillColor=none;align=center;verticalAlign=middle;whiteSpace=wrap;rounded=0;" vertex="1" parent="1">
          <mxGeometry x="370" y="120" width="130" height="30" as="geometry" />
        </mxCell>
        <mxCell id="j5rV3bfTzjq7nXRstRWs-2031" value="Application" style="rounded=0;whiteSpace=wrap;html=1;fillColor=#fff2cc;strokeColor=#d6b656;" vertex="1" parent="1">
          <mxGeometry x="120" y="150" width="120" height="60" as="geometry" />
        </mxCell>
        <mxCell id="j5rV3bfTzjq7nXRstRWs-2032" value="Application" style="rounded=0;whiteSpace=wrap;html=1;fillColor=#fff2cc;strokeColor=#d6b656;" vertex="1" parent="1">
          <mxGeometry x="420" y="150" width="120" height="60" as="geometry" />
        </mxCell>
        <mxCell id="j5rV3bfTzjq7nXRstRWs-2033" value="" style="endArrow=none;html=1;rounded=0;" edge="1" parent="1">
          <mxGeometry width="50" height="50" relative="1" as="geometry">
            <mxPoint x="160" y="440" as="sourcePoint" />
            <mxPoint x="480" y="440" as="targetPoint" />
          </mxGeometry>
        </mxCell>
        <mxCell id="j5rV3bfTzjq7nXRstRWs-2034" value="" style="endArrow=none;html=1;rounded=0;" edge="1" parent="1">
          <mxGeometry width="50" height="50" relative="1" as="geometry">
            <mxPoint x="160" y="480" as="sourcePoint" />
            <mxPoint x="480" y="480" as="targetPoint" />
          </mxGeometry>
        </mxCell>
        <mxCell id="j5rV3bfTzjq7nXRstRWs-2038" value="" style="endArrow=classic;html=1;rounded=0;entryX=0;entryY=1;entryDx=0;entryDy=0;" edge="1" parent="1" target="j5rV3bfTzjq7nXRstRWs-2001">
          <mxGeometry width="50" height="50" relative="1" as="geometry">
            <mxPoint x="320" y="440" as="sourcePoint" />
            <mxPoint x="290" y="390" as="targetPoint" />
          </mxGeometry>
        </mxCell>
        <mxCell id="j5rV3bfTzjq7nXRstRWs-2039" value="ImageFile" style="rounded=0;whiteSpace=wrap;html=1;fillColor=#60a917;fontColor=#ffffff;strokeColor=#2D7600;" vertex="1" parent="1">
          <mxGeometry x="200" y="440" width="240" height="40" as="geometry" />
        </mxCell>
        <mxCell id="j5rV3bfTzjq7nXRstRWs-2040" value="" style="endArrow=classic;html=1;rounded=0;exitX=0;exitY=0;exitDx=0;exitDy=0;entryX=0;entryY=0;entryDx=0;entryDy=0;" edge="1" parent="1" source="j5rV3bfTzjq7nXRstRWs-1843" target="j5rV3bfTzjq7nXRstRWs-1791">
          <mxGeometry width="50" height="50" relative="1" as="geometry">
            <mxPoint x="240" y="280" as="sourcePoint" />
            <mxPoint x="290" y="230" as="targetPoint" />
          </mxGeometry>
        </mxCell>
        <mxCell id="j5rV3bfTzjq7nXRstRWs-2041" value="" style="endArrow=classic;html=1;rounded=0;" edge="1" parent="1">
          <mxGeometry width="50" height="50" relative="1" as="geometry">
            <mxPoint x="240" y="410" as="sourcePoint" />
            <mxPoint x="160" y="290" as="targetPoint" />
          </mxGeometry>
        </mxCell>
        <mxCell id="j5rV3bfTzjq7nXRstRWs-2042" value="" style="endArrow=classic;html=1;rounded=0;exitX=0;exitY=1;exitDx=0;exitDy=0;" edge="1" parent="1" source="j5rV3bfTzjq7nXRstRWs-1961">
          <mxGeometry width="50" height="50" relative="1" as="geometry">
            <mxPoint x="240" y="280" as="sourcePoint" />
            <mxPoint x="190" y="290" as="targetPoint" />
          </mxGeometry>
        </mxCell>
        <mxCell id="j5rV3bfTzjq7nXRstRWs-2043" value="" style="endArrow=classic;html=1;rounded=0;entryX=0;entryY=1;entryDx=0;entryDy=0;" edge="1" parent="1" target="j5rV3bfTzjq7nXRstRWs-1801">
          <mxGeometry width="50" height="50" relative="1" as="geometry">
            <mxPoint x="350" y="400" as="sourcePoint" />
            <mxPoint x="290" y="230" as="targetPoint" />
          </mxGeometry>
        </mxCell>
        <mxCell id="j5rV3bfTzjq7nXRstRWs-2044" value="" style="endArrow=classic;html=1;rounded=0;entryX=1;entryY=0;entryDx=0;entryDy=0;" edge="1" parent="1" target="j5rV3bfTzjq7nXRstRWs-1836">
          <mxGeometry width="50" height="50" relative="1" as="geometry">
            <mxPoint x="420" y="380" as="sourcePoint" />
            <mxPoint x="350" y="240" as="targetPoint" />
          </mxGeometry>
        </mxCell>
        <mxCell id="j5rV3bfTzjq7nXRstRWs-2045" value="" style="endArrow=classic;html=1;rounded=0;entryX=0.5;entryY=1;entryDx=0;entryDy=0;" edge="1" parent="1" target="j5rV3bfTzjq7nXRstRWs-1825">
          <mxGeometry width="50" height="50" relative="1" as="geometry">
            <mxPoint x="380" y="400" as="sourcePoint" />
            <mxPoint x="380" y="270" as="targetPoint" />
          </mxGeometry>
        </mxCell>
        <mxCell id="j5rV3bfTzjq7nXRstRWs-2046" value="" style="endArrow=classic;html=1;rounded=0;exitX=0;exitY=1;exitDx=0;exitDy=0;entryX=0;entryY=1;entryDx=0;entryDy=0;" edge="1" parent="1" source="j5rV3bfTzjq7nXRstRWs-1956" target="j5rV3bfTzjq7nXRstRWs-1820">
          <mxGeometry width="50" height="50" relative="1" as="geometry">
            <mxPoint x="300" y="350" as="sourcePoint" />
            <mxPoint x="350" y="300" as="targetPoint" />
          </mxGeometry>
        </mxCell>
        <mxCell id="j5rV3bfTzjq7nXRstRWs-2047" value="mmap()" style="text;html=1;strokeColor=none;fillColor=none;align=center;verticalAlign=middle;whiteSpace=wrap;rounded=0;" vertex="1" parent="1">
          <mxGeometry x="280" y="330" width="60" height="30" as="geometry" />
        </mxCell>
        <mxCell id="j5rV3bfTzjq7nXRstRWs-2048" value="" style="endArrow=classic;html=1;rounded=0;exitX=0;exitY=0;exitDx=0;exitDy=0;entryX=0.5;entryY=1;entryDx=0;entryDy=0;" edge="1" parent="1" source="j5rV3bfTzjq7nXRstRWs-1801" target="j5rV3bfTzjq7nXRstRWs-2025">
          <mxGeometry width="50" height="50" relative="1" as="geometry">
            <mxPoint x="240" y="280" as="sourcePoint" />
            <mxPoint x="290" y="230" as="targetPoint" />
          </mxGeometry>
        </mxCell>
        <mxCell id="j5rV3bfTzjq7nXRstRWs-2049" value="" style="endArrow=classic;html=1;rounded=0;entryX=0.5;entryY=1;entryDx=0;entryDy=0;exitX=1;exitY=0;exitDx=0;exitDy=0;" edge="1" parent="1" source="j5rV3bfTzjq7nXRstRWs-1826" target="j5rV3bfTzjq7nXRstRWs-2026">
          <mxGeometry width="50" height="50" relative="1" as="geometry">
            <mxPoint x="240" y="280" as="sourcePoint" />
            <mxPoint x="290" y="230" as="targetPoint" />
          </mxGeometry>
        </mxCell>
        <mxCell id="j5rV3bfTzjq7nXRstRWs-2050" value="" style="endArrow=none;dashed=1;html=1;rounded=0;" edge="1" parent="1">
          <mxGeometry width="50" height="50" relative="1" as="geometry">
            <mxPoint x="40" y="360" as="sourcePoint" />
            <mxPoint x="600" y="360" as="targetPoint" />
          </mxGeometry>
        </mxCell>
        <mxCell id="j5rV3bfTzjq7nXRstRWs-2051" value="user space" style="text;html=1;strokeColor=none;fillColor=none;align=center;verticalAlign=middle;whiteSpace=wrap;rounded=0;" vertex="1" parent="1">
          <mxGeometry x="530" y="330" width="80" height="30" as="geometry" />
        </mxCell>
        <mxCell id="j5rV3bfTzjq7nXRstRWs-2052" value="kernel space" style="text;html=1;strokeColor=none;fillColor=none;align=center;verticalAlign=middle;whiteSpace=wrap;rounded=0;" vertex="1" parent="1">
          <mxGeometry x="530" y="360" width="80" height="30" as="geometry" />
        </mxCell>
        <mxCell id="j5rV3bfTzjq7nXRstRWs-2053" value="" style="endArrow=none;dashed=1;html=1;rounded=0;exitX=0;exitY=0.5;exitDx=0;exitDy=0;entryX=1;entryY=0.5;entryDx=0;entryDy=0;" edge="1" parent="1" source="j5rV3bfTzjq7nXRstRWs-1779" target="j5rV3bfTzjq7nXRstRWs-1779">
          <mxGeometry width="50" height="50" relative="1" as="geometry">
            <mxPoint x="240" y="260" as="sourcePoint" />
            <mxPoint x="290" y="210" as="targetPoint" />
          </mxGeometry>
        </mxCell>
        <mxCell id="j5rV3bfTzjq7nXRstRWs-2054" value="" style="endArrow=none;dashed=1;html=1;rounded=0;entryX=0;entryY=0.5;entryDx=0;entryDy=0;exitX=1;exitY=0.5;exitDx=0;exitDy=0;" edge="1" parent="1" source="j5rV3bfTzjq7nXRstRWs-1781" target="j5rV3bfTzjq7nXRstRWs-1781">
          <mxGeometry width="50" height="50" relative="1" as="geometry">
            <mxPoint x="240" y="260" as="sourcePoint" />
            <mxPoint x="290" y="210" as="targetPoint" />
          </mxGeometry>
        </mxCell>
        <mxCell id="j5rV3bfTzjq7nXRstRWs-2055" value="virtio pmem" style="text;strokeColor=none;fillColor=none;align=center;verticalAlign=middle;whiteSpace=wrap;rounded=0;fontSize=10;" vertex="1" parent="1">
          <mxGeometry x="190" y="250" width="80" height="30" as="geometry" />
        </mxCell>
        <mxCell id="j5rV3bfTzjq7nXRstRWs-2056" value="virtio pmem" style="text;strokeColor=none;fillColor=none;align=center;verticalAlign=middle;whiteSpace=wrap;rounded=0;fontSize=10;" vertex="1" parent="1">
          <mxGeometry x="490" y="250" width="80" height="30" as="geometry" />
        </mxCell>
        <mxCell id="j5rV3bfTzjq7nXRstRWs-2057" value="page cache&amp;nbsp;" style="text;html=1;strokeColor=none;fillColor=none;align=center;verticalAlign=middle;whiteSpace=wrap;rounded=0;fontSize=10;" vertex="1" parent="1">
          <mxGeometry x="120" y="387" width="80" height="30" as="geometry" />
        </mxCell>
      </root>
    </mxGraphModel>
  </diagram>
</mxfile>
